<svg xmlns="http://www.w3.org/2000/svg" viewBox="0 0 221.3 252.4"><defs><style>.cls-1{fill:#fff;}.cls-2{fill:#293549;}.cls-3{fill:#3bab5e;}.cls-4{fill:#f7f8f9;}.cls-5{fill:#424143;opacity:0.4;}.cls-5,.cls-6{isolation:isolate;}.cls-6{fill:#221f1f;opacity:0.1;}</style></defs><title>agencia</title><g id="Capa_2" data-name="Capa 2"><g id="Pagina_Inicial_Escritorio" data-name="Pagina Inicial Escritorio"><path class="cls-1" d="M0,67.8a10.7,10.7,0,0,1,4.8-8.3l101-58.3a10.7,10.7,0,0,1,9.6,0l101,58.3a10.7,10.7,0,0,1,4.8,8.3V184.5a10.7,10.7,0,0,1-4.8,8.3l-101,58.3a10.7,10.7,0,0,1-9.6,0L4.8,192.8A10.7,10.7,0,0,1,0,184.5Z"/><path class="cls-2" d="M52.8,42.3a6.8,6.8,0,0,1,6.8-6.8H161.9a6.8,6.8,0,0,1,6.8,6.8V210.1a6.8,6.8,0,0,1-6.8,6.8H59.6a6.8,6.8,0,0,1-6.8-6.8Z"/><rect class="cls-3" x="59.6" y="59.2" width="102.3" height="128.18"/><path class="cls-4" d="M114.9,46.6h-8.5a.3.3,0,0,1-.4-.4.4.4,0,0,1,.4-.4h8.5a.4.4,0,1,1,0,.8Z"/><path class="cls-4" d="M117.7,48.5H103.8a.4.4,0,0,1-.4-.4.3.3,0,0,1,.4-.4h13.9a.4.4,0,0,1,.4.4A.3.3,0,0,1,117.7,48.5Z"/><path class="cls-4" d="M114.9,50.3h-8.5a.4.4,0,1,1,0-.8h8.5a.4.4,0,1,1,0,.8Z"/><path class="cls-4" d="M110.8,210.8a7.4,7.4,0,0,1-7.3-7.5,7.3,7.3,0,0,1,7.3-7.3,7.3,7.3,0,0,1,7.3,7.3A7.4,7.4,0,0,1,110.8,210.8Zm0-14.1a6.7,6.7,0,1,0,6.7,6.7A6.7,6.7,0,0,0,110.8,196.6Z"/><rect class="cls-4" x="68.1" y="66" width="85.2" height="24.12"/><rect class="cls-5" x="98" y="98.1" width="55.4" height="24.12"/><rect class="cls-5" x="68.1" y="97.9" width="24.4" height="24.37"/><rect class="cls-5" x="98" y="128.2" width="55.4" height="24.12"/><rect class="cls-5" x="68.1" y="127.9" width="24.4" height="24.37"/><rect class="cls-5" x="98" y="158.1" width="55.4" height="24.12"/><rect class="cls-5" x="68.1" y="158" width="24.4" height="24.37"/><path class="cls-6" d="M216.5,59.5,115.3,1.1A9,9,0,0,0,110.8,0V252.4a9,9,0,0,0,4.5-1.1l101-58.3a10.7,10.7,0,0,0,4.8-8.3V67.8A10.2,10.2,0,0,0,216.5,59.5Z"/></g></g></svg>