<svg xmlns="http://www.w3.org/2000/svg" viewBox="0 0 175 175"><defs><style>.cls-1{fill:#12afaf;}.cls-2{fill:#fff;}</style></defs><title>servicio-3</title><g id="Capa_2" data-name="Capa 2"><g id="Pagina_Inicial_Escritorio" data-name="Pagina Inicial Escritorio"><circle class="cls-1" cx="87.5" cy="87.5" r="87.5"/><path class="cls-2" d="M73.8,102V88.3a2.2,2.2,0,0,1,.6-1.7l1.7-.6h.8V81.6a10.6,10.6,0,0,1,21.2,0v4.5h.8l1.7.6a2.2,2.2,0,0,1,.6,1.7V102a2.2,2.2,0,0,1-.6,1.7l-1.7.6H76.1l-1.7-.6A2,2,0,0,1,73.8,102Zm7.5-15.9h12V81.6a5.9,5.9,0,0,0-1.7-4.2,5.6,5.6,0,0,0-4.2-1.7,5.9,5.9,0,0,0-4.2,1.7,5.6,5.6,0,0,0-1.7,4.2v4.5h-.3Z"/><path class="cls-2" d="M33.7,110.1A56.9,56.9,0,0,1,29,87.2a58.8,58.8,0,0,1,4.7-22.9A61.9,61.9,0,0,1,46.3,45.7,57.4,57.4,0,0,1,64.9,33.2a56.8,56.8,0,0,1,22.9-4.7,58.8,58.8,0,0,1,22.9,4.7,61.9,61.9,0,0,1,18.7,12.5,59.6,59.6,0,0,1,17.3,41.5,58.8,58.8,0,0,1-4.7,22.9,61.9,61.9,0,0,1-12.5,18.7,59.6,59.6,0,0,1-41.5,17A58.8,58.8,0,0,1,64.9,141a61.9,61.9,0,0,1-18.7-12.5A59.6,59.6,0,0,1,33.7,110.1Zm9.8-46.5a50.4,50.4,0,0,0,0,47.4L56,98.4a34.3,34.3,0,0,1-2-10.9,33.7,33.7,0,0,1,2-10.9L43.5,63.8h0Zm26.8,5.9a25.1,25.1,0,1,0,17.8-7.5,24.2,24.2,0,0,0-17.8,7.5ZM64.4,42.6,76.9,55.2a34.3,34.3,0,0,1,10.9-2,33.7,33.7,0,0,1,10.9,2l12.8-12.5a50.4,50.4,0,0,0-47.4.3Zm0,88.9a50.4,50.4,0,0,0,47.4,0L99.2,119a34.3,34.3,0,0,1-10.9,2,33.7,33.7,0,0,1-10.9-2Zm55.5-33.4,12.5,12.5a50.4,50.4,0,0,0,0-47.4L119.8,75.8a33.7,33.7,0,0,1-.3,22.3Z"/></g></g></svg>