<svg xmlns="http://www.w3.org/2000/svg" viewBox="0 0 175 175"><defs><style>.cls-1{fill:#12afaf;}.cls-2{fill:#fff;}</style></defs><title>servicio-1</title><g id="Capa_2" data-name="Capa 2"><g id="Pagina_Inicial_Escritorio" data-name="Pagina Inicial Escritorio"><circle class="cls-1" cx="87.5" cy="87.5" r="87.5"/><path class="cls-2" d="M39.7,92.3V83a1.4,1.4,0,0,1,0-1.1l.6-.6,7.9-1.1a29,29,0,0,1,1.7-3.9l-4.5-5.9a2,2,0,0,1-.3-1.1,1.4,1.4,0,0,1,.3-1.1l4.2-4.5a10.1,10.1,0,0,1,3.9-3.1h1.1L60.5,65l3.9-1.7q.4-4.2,1.1-8.4a2.5,2.5,0,0,1,1.4-2h9.6A3.9,3.9,0,0,1,77.7,54a2.5,2.5,0,0,1,.6,1.4l1.1,7.9L83.3,65l5.9-4.5h2c4.8,4.5,7.3,7,7.3,8.2a2,2,0,0,1-.3,1.1l-2.3,2.8-2.3,3.1,1.7,4.2L103,81l1.1.6a2.3,2.3,0,0,1,.6,1.1V92a2.5,2.5,0,0,1-.6,1.1l-1.1.6-7.9,1.1a26.2,26.2,0,0,1-1.7,3.9l4.5,5.9a1.7,1.7,0,0,1,.3,1.1,1.4,1.4,0,0,1-.3,1.1l-4.2,4.5a10.1,10.1,0,0,1-3.9,3.1H88.6L82.7,110l-3.9,1.7c-.3,3.7-.8,6.8-1.1,8.4a2.3,2.3,0,0,1-1.4,1.7H67a3.1,3.1,0,0,1-1.1-1.1,2.3,2.3,0,0,1-.6-1.1l-1.1-7.9L60.2,110l-5.9,4.5h-2c-4.8-4.5-7.3-7-7.3-8.2a2,2,0,0,1,.3-1.1l2-2.5,2.3-3.1a25.6,25.6,0,0,1-1.7-4.2l-7.6-1.1-.6-.6A2.7,2.7,0,0,1,39.7,92.3ZM62.2,78.5a11.9,11.9,0,1,1,.3,0ZM104.1,67c-5.1-.6-8.2-1.1-8.2-1.7v-7c0-.6,3.1-1.1,8.2-1.7a16.6,16.6,0,0,1,2-2.5,23.6,23.6,0,0,1-2.5-7h.3l1.7-1.1,3.1-1.7,1.4-.8a7.3,7.3,0,0,1,2.3,2.3l2.5,3.4h3.1a52.3,52.3,0,0,1,4.8-5.6h.3l6.2,3.4h.3a27,27,0,0,1-2.5,7,12.1,12.1,0,0,1,1.1,2.5c5.1.6,7,1.1,7,1.7v7c0,.6-2,1.1-7,1.7a14.3,14.3,0,0,1-1.4,2.5,29.5,29.5,0,0,1,2.8,7h-.3l-6.2,3.7a7.3,7.3,0,0,1-2.3-2.3l-2.5-3.4h-3.1l-2.5,3.4a7.3,7.3,0,0,1-2.3,2.3l-6.2-3.7h-.3a21.1,21.1,0,0,1,2.3-7l-1.7-2.5h0Zm0,51.8c-5.1-.6-8.2-1.1-8.2-1.7v-7c0-.6,3.1-1.1,8.2-1.7a16.6,16.6,0,0,1,2-2.5,23.6,23.6,0,0,1-2.5-7h.3l1.7-1.1,3.1-1.7,1.4-.8a7.3,7.3,0,0,1,2.3,2.3l2.5,3.4h3.1a52.3,52.3,0,0,1,4.8-5.6h.3l6.2,3.4h.3a27,27,0,0,1-2.5,7A12.1,12.1,0,0,1,128,108c5.1.6,7,1.1,7,1.7v7c0,.6-2,1.1-7,1.7a14.3,14.3,0,0,1-1.4,2.5,29.5,29.5,0,0,1,2.8,7h-.3l-6.2,3.7a7.3,7.3,0,0,1-2.3-2.3l-2.5-3.4h-3.1l-2.5,3.4a7.3,7.3,0,0,1-2.3,2.3l-6.2-3.7h-.3a21.1,21.1,0,0,1,2.3-7l-1.7-2.5h0Zm6.2-56.8a6.5,6.5,0,1,0,2-4.5,6.2,6.2,0,0,0-2,4.2Zm0,51.8a6.5,6.5,0,1,0,2-4.5,6.2,6.2,0,0,0-2,4.2Z"/></g></g></svg>