<svg xmlns="http://www.w3.org/2000/svg" viewBox="0 0 175 175"><defs><style>.cls-1{fill:#12afaf;}.cls-2{fill:#fff;}</style></defs><title>servicio-2</title><g id="Capa_2" data-name="Capa 2"><g id="Pagina_Inicial_Escritorio" data-name="Pagina Inicial Escritorio"><circle class="cls-1" cx="87.5" cy="87.5" r="87.5"/><path class="cls-2" d="M73.8,91.4V78a2.2,2.2,0,0,1,.6-1.7l1.7-.6h.8V71.3a10.6,10.6,0,0,1,21.2,0v4.5h.8l1.7.6a2.2,2.2,0,0,1,.6,1.7V91.7a2.2,2.2,0,0,1-.6,1.7l-1.7.6H76.4l-1.7-.6A2,2,0,0,1,73.8,91.4Zm7.5-15.9h12V71.1a5.9,5.9,0,0,0-1.7-4.2,5.6,5.6,0,0,0-4.2-1.7,5.9,5.9,0,0,0-4.2,1.7,5.6,5.6,0,0,0-1.7,4.2v4.5h-.3Z"/><path class="cls-2" d="M37.1,112.3V55.2a8.4,8.4,0,0,1,2.5-5.9,8.1,8.1,0,0,1,5.9-2.5h83.9a8.4,8.4,0,0,1,5.9,2.5,8.1,8.1,0,0,1,2.5,5.9v57.1a8.4,8.4,0,0,1-2.5,5.9,8.1,8.1,0,0,1-5.9,2.5H100.9a11.1,11.1,0,0,0,.8,3.9l1.7,3.6a6.4,6.4,0,0,1,.8,2.2,3.3,3.3,0,0,1-3.3,3.3h-27a3.3,3.3,0,0,1-3.3-3.3,6.1,6.1,0,0,1,.8-2.2l1.7-3.6a11.4,11.4,0,0,0,.8-4.2H45.4a8.4,8.4,0,0,1-5.9-2.5A8.1,8.1,0,0,1,37.1,112.3Zm6.7-13.4a1.7,1.7,0,0,0,.6,1.1l1.1.6h83.9l1.1-.6a1.7,1.7,0,0,0,.6-1.1V55.5a1.7,1.7,0,0,0-.6-1.1l-1.1-.6H45.4l-1.1.6a1.7,1.7,0,0,0-.6,1.1V98.9Z"/></g></g></svg>